<svg width="183" height="54" viewBox="0 0 183 54" fill="none" xmlns="http://www.w3.org/2000/svg">
<path d="M65.8942 34H62.9283L67.4474 20.9091H71.0142L75.527 34H72.5611L69.282 23.9006H69.1797L65.8942 34ZM65.7088 28.8544H72.7145V31.0149H65.7088V28.8544ZM79.7745 20.9091V34H77.0515V20.9091H79.7745ZM84.6788 20.9091V34H81.9558V20.9091H84.6788ZM91.3345 34.1918C90.3246 34.1918 89.4553 33.9872 88.7266 33.5781C88.0021 33.1648 87.4439 32.581 87.0518 31.8267C86.6598 31.0682 86.4638 30.1712 86.4638 29.1357C86.4638 28.1257 86.6598 27.2393 87.0518 26.4766C87.4439 25.7138 87.9957 25.1193 88.7074 24.6932C89.4233 24.267 90.2628 24.054 91.2259 24.054C91.8736 24.054 92.4766 24.1584 93.0348 24.3672C93.5973 24.5717 94.0874 24.8807 94.505 25.294C94.9268 25.7074 95.255 26.2273 95.4893 26.8537C95.7237 27.4759 95.8409 28.2045 95.8409 29.0398V29.7876H87.5504V28.1001H93.2777C93.2777 27.7081 93.1925 27.3608 93.022 27.0582C92.8516 26.7557 92.6151 26.5192 92.3125 26.3487C92.0142 26.174 91.6669 26.0866 91.2706 26.0866C90.8572 26.0866 90.4908 26.1825 90.1712 26.3743C89.8558 26.5618 89.6087 26.8153 89.4297 27.1349C89.2507 27.4503 89.1591 27.8018 89.1548 28.1896V29.794C89.1548 30.2798 89.2443 30.6996 89.4233 31.0533C89.6065 31.407 89.8643 31.6797 90.1967 31.8714C90.5291 32.0632 90.9233 32.1591 91.3793 32.1591C91.6818 32.1591 91.9588 32.1165 92.2102 32.0312C92.4616 31.946 92.6768 31.8182 92.8558 31.6477C93.0348 31.4773 93.1712 31.2685 93.2649 31.0213L95.7834 31.1875C95.6555 31.7926 95.3935 32.321 94.9972 32.7727C94.6051 33.2202 94.098 33.5696 93.4759 33.821C92.858 34.0682 92.1442 34.1918 91.3345 34.1918ZM102.041 37.8864C101.159 37.8864 100.403 37.7649 99.772 37.522C99.1456 37.2834 98.647 36.9574 98.2763 36.544C97.9055 36.1307 97.6648 35.6662 97.554 35.1506L100.072 34.8118C100.149 35.0078 100.271 35.1911 100.437 35.3615C100.603 35.532 100.822 35.6683 101.095 35.7706C101.372 35.8771 101.709 35.9304 102.105 35.9304C102.697 35.9304 103.185 35.7855 103.569 35.4957C103.957 35.2102 104.151 34.7308 104.151 34.0575V32.2614H104.036C103.916 32.5341 103.737 32.7919 103.499 33.0348C103.26 33.2777 102.953 33.4759 102.578 33.6293C102.203 33.7827 101.756 33.8594 101.236 33.8594C100.499 33.8594 99.8274 33.6889 99.2223 33.348C98.6214 33.0028 98.142 32.4766 97.7841 31.7692C97.4304 31.0575 97.2536 30.1584 97.2536 29.0717C97.2536 27.9595 97.4347 27.0305 97.7969 26.2848C98.1591 25.5391 98.6406 24.9808 99.2415 24.6101C99.8466 24.2393 100.509 24.054 101.229 24.054C101.779 24.054 102.239 24.1477 102.61 24.3352C102.981 24.5185 103.279 24.7486 103.505 25.0256C103.735 25.2983 103.912 25.5668 104.036 25.831H104.138V24.1818H106.842V34.0959C106.842 34.9311 106.637 35.63 106.228 36.1925C105.819 36.755 105.252 37.1768 104.528 37.4581C103.808 37.7436 102.979 37.8864 102.041 37.8864ZM102.099 31.8139C102.538 31.8139 102.908 31.7053 103.211 31.4879C103.518 31.2663 103.752 30.951 103.914 30.5419C104.08 30.1286 104.163 29.6342 104.163 29.0589C104.163 28.4837 104.082 27.9851 103.92 27.5632C103.759 27.1371 103.524 26.8068 103.217 26.5724C102.911 26.3381 102.538 26.2209 102.099 26.2209C101.651 26.2209 101.274 26.3423 100.967 26.5852C100.661 26.8239 100.428 27.1562 100.271 27.5824C100.113 28.0085 100.034 28.5007 100.034 29.0589C100.034 29.6257 100.113 30.1158 100.271 30.5291C100.433 30.9382 100.665 31.2557 100.967 31.4815C101.274 31.7031 101.651 31.8139 102.099 31.8139ZM109.009 34V24.1818H111.648V25.8949H111.751C111.93 25.2855 112.23 24.8253 112.652 24.5142C113.074 24.1989 113.56 24.0412 114.109 24.0412C114.246 24.0412 114.393 24.0497 114.55 24.0668C114.708 24.0838 114.847 24.1072 114.966 24.1371V26.5533C114.838 26.5149 114.661 26.4808 114.435 26.451C114.21 26.4212 114.003 26.4062 113.815 26.4062C113.415 26.4062 113.057 26.4936 112.741 26.6683C112.43 26.8388 112.183 27.0774 112 27.3842C111.821 27.6911 111.732 28.0447 111.732 28.4453V34H109.009ZM120.353 34.1918C119.36 34.1918 118.501 33.9808 117.777 33.5589C117.057 33.1328 116.501 32.5405 116.108 31.782C115.716 31.0192 115.52 30.1349 115.52 29.1293C115.52 28.1151 115.716 27.2287 116.108 26.4702C116.501 25.7074 117.057 25.1151 117.777 24.6932C118.501 24.267 119.36 24.054 120.353 24.054C121.346 24.054 122.202 24.267 122.922 24.6932C123.647 25.1151 124.205 25.7074 124.597 26.4702C124.989 27.2287 125.185 28.1151 125.185 29.1293C125.185 30.1349 124.989 31.0192 124.597 31.782C124.205 32.5405 123.647 33.1328 122.922 33.5589C122.202 33.9808 121.346 34.1918 120.353 34.1918ZM120.366 32.0824C120.817 32.0824 121.194 31.9545 121.497 31.6989C121.8 31.4389 122.028 31.0852 122.181 30.6378C122.339 30.1903 122.417 29.6811 122.417 29.1101C122.417 28.5391 122.339 28.0298 122.181 27.5824C122.028 27.1349 121.8 26.7812 121.497 26.5213C121.194 26.2614 120.817 26.1314 120.366 26.1314C119.91 26.1314 119.526 26.2614 119.215 26.5213C118.908 26.7812 118.676 27.1349 118.518 27.5824C118.365 28.0298 118.288 28.5391 118.288 29.1101C118.288 29.6811 118.365 30.1903 118.518 30.6378C118.676 31.0852 118.908 31.4389 119.215 31.6989C119.526 31.9545 119.91 32.0824 120.366 32.0824ZM142.123 20.9091V34H139.732L134.037 25.7607H133.941V34H131.173V20.9091H133.602L139.252 29.142H139.368V20.9091H142.123ZM148.794 34.1918C147.801 34.1918 146.943 33.9808 146.218 33.5589C145.498 33.1328 144.942 32.5405 144.55 31.782C144.158 31.0192 143.962 30.1349 143.962 29.1293C143.962 28.1151 144.158 27.2287 144.55 26.4702C144.942 25.7074 145.498 25.1151 146.218 24.6932C146.943 24.267 147.801 24.054 148.794 24.054C149.787 24.054 150.644 24.267 151.364 24.6932C152.088 25.1151 152.646 25.7074 153.039 26.4702C153.431 27.2287 153.627 28.1151 153.627 29.1293C153.627 30.1349 153.431 31.0192 153.039 31.782C152.646 32.5405 152.088 33.1328 151.364 33.5589C150.644 33.9808 149.787 34.1918 148.794 34.1918ZM148.807 32.0824C149.259 32.0824 149.636 31.9545 149.938 31.6989C150.241 31.4389 150.469 31.0852 150.622 30.6378C150.78 30.1903 150.859 29.6811 150.859 29.1101C150.859 28.5391 150.78 28.0298 150.622 27.5824C150.469 27.1349 150.241 26.7812 149.938 26.5213C149.636 26.2614 149.259 26.1314 148.807 26.1314C148.351 26.1314 147.968 26.2614 147.656 26.5213C147.35 26.7812 147.117 27.1349 146.96 27.5824C146.806 28.0298 146.73 28.5391 146.73 29.1101C146.73 29.6811 146.806 30.1903 146.96 30.6378C147.117 31.0852 147.35 31.4389 147.656 31.6989C147.968 31.9545 148.351 32.0824 148.807 32.0824ZM160.619 24.1818V26.2273H154.707V24.1818H160.619ZM156.049 21.8295H158.772V30.983C158.772 31.2344 158.811 31.4304 158.887 31.571C158.964 31.7074 159.07 31.8033 159.207 31.8587C159.347 31.9141 159.509 31.9418 159.693 31.9418C159.82 31.9418 159.948 31.9311 160.076 31.9098C160.204 31.8842 160.302 31.8651 160.37 31.8523L160.798 33.8786C160.662 33.9212 160.47 33.9702 160.223 34.0256C159.976 34.0852 159.676 34.1214 159.322 34.1342C158.666 34.1598 158.09 34.0724 157.596 33.8722C157.106 33.6719 156.725 33.3608 156.452 32.9389C156.179 32.517 156.045 31.9844 156.049 31.3409V21.8295ZM166.762 34.1918C165.752 34.1918 164.883 33.9872 164.154 33.5781C163.43 33.1648 162.872 32.581 162.48 31.8267C162.088 31.0682 161.892 30.1712 161.892 29.1357C161.892 28.1257 162.088 27.2393 162.48 26.4766C162.872 25.7138 163.423 25.1193 164.135 24.6932C164.851 24.267 165.691 24.054 166.654 24.054C167.301 24.054 167.904 24.1584 168.463 24.3672C169.025 24.5717 169.515 24.8807 169.933 25.294C170.355 25.7074 170.683 26.2273 170.917 26.8537C171.151 27.4759 171.269 28.2045 171.269 29.0398V29.7876H162.978V28.1001H168.705C168.705 27.7081 168.62 27.3608 168.45 27.0582C168.279 26.7557 168.043 26.5192 167.74 26.3487C167.442 26.174 167.095 26.0866 166.698 26.0866C166.285 26.0866 165.919 26.1825 165.599 26.3743C165.284 26.5618 165.036 26.8153 164.857 27.1349C164.678 27.4503 164.587 27.8018 164.583 28.1896V29.794C164.583 30.2798 164.672 30.6996 164.851 31.0533C165.034 31.407 165.292 31.6797 165.624 31.8714C165.957 32.0632 166.351 32.1591 166.807 32.1591C167.11 32.1591 167.387 32.1165 167.638 32.0312C167.889 31.946 168.105 31.8182 168.284 31.6477C168.463 31.4773 168.599 31.2685 168.693 31.0213L171.211 31.1875C171.083 31.7926 170.821 32.321 170.425 32.7727C170.033 33.2202 169.526 33.5696 168.904 33.821C168.286 34.0682 167.572 34.1918 166.762 34.1918ZM181.215 26.9815L178.722 27.1349C178.679 26.9219 178.588 26.7301 178.447 26.5597C178.306 26.3849 178.121 26.2464 177.891 26.1442C177.665 26.0376 177.394 25.9844 177.079 25.9844C176.657 25.9844 176.301 26.0739 176.012 26.2528C175.722 26.4276 175.577 26.6619 175.577 26.956C175.577 27.1903 175.671 27.3885 175.858 27.5504C176.046 27.7124 176.367 27.8423 176.823 27.9403L178.6 28.2983C179.555 28.4943 180.267 28.8097 180.735 29.2443C181.204 29.679 181.438 30.25 181.438 30.9574C181.438 31.6009 181.249 32.1655 180.869 32.6513C180.494 33.1371 179.979 33.5163 179.323 33.7891C178.671 34.0575 177.919 34.1918 177.066 34.1918C175.767 34.1918 174.731 33.9212 173.96 33.38C173.193 32.8345 172.743 32.093 172.611 31.1555L175.289 31.0149C175.37 31.4112 175.566 31.7138 175.877 31.9226C176.188 32.1271 176.587 32.2294 177.073 32.2294C177.55 32.2294 177.933 32.1378 178.223 31.9545C178.517 31.767 178.666 31.5263 178.671 31.2322C178.666 30.9851 178.562 30.7827 178.357 30.625C178.153 30.4631 177.838 30.3395 177.411 30.2543L175.711 29.9155C174.752 29.7237 174.039 29.3913 173.57 28.9183C173.105 28.4453 172.873 27.8423 172.873 27.1094C172.873 26.4787 173.044 25.9354 173.384 25.4794C173.73 25.0234 174.213 24.6719 174.835 24.4247C175.462 24.1776 176.195 24.054 177.034 24.054C178.274 24.054 179.25 24.3161 179.962 24.8402C180.678 25.3643 181.095 26.0781 181.215 26.9815Z" fill="#2D3748"/>
<path d="M6.19874 33.111L7.36199 37.458C8.72099 42.5317 9.40274 45.0697 10.944 46.7145C12.1604 48.0123 13.7342 48.9205 15.4665 49.3245C17.6625 49.8375 20.2005 49.158 25.2765 47.799C30.348 46.44 32.886 45.7605 34.5307 44.2192C34.6672 44.0902 34.7992 43.9582 34.9267 43.8232C34.1604 43.7542 33.3987 43.6415 32.6452 43.4857C31.0792 43.1752 29.2185 42.6757 27.018 42.0862L26.7772 42.021L26.721 42.0075C24.327 41.364 22.3267 40.8285 20.7292 40.2525C19.0485 39.645 17.523 38.8957 16.2247 37.6807C14.439 36.0076 13.1893 33.8427 12.6337 31.4595C12.2287 29.7292 12.3457 28.0327 12.6607 26.2755C12.9622 24.5902 13.5022 22.5697 14.1502 20.151L15.354 15.6645L15.3945 15.507C11.0745 16.6702 8.79974 17.3587 7.28324 18.7785C5.98384 19.9959 5.07475 21.5713 4.67099 23.3055C4.15799 25.4992 4.83749 28.0372 6.19874 33.111Z" fill="#7961E4"/>
<path fill-rule="evenodd" clip-rule="evenodd" d="M46.8675 24.1087L45.702 28.4557C44.3407 33.5295 43.6612 36.0675 42.12 37.7122C40.9038 39.0109 39.3301 39.9199 37.5975 40.3245C37.38 40.3755 37.1587 40.4145 36.9337 40.4415C34.875 40.6957 32.3617 40.023 27.7897 38.799C22.716 37.4377 20.178 36.7582 18.5332 35.217C17.2342 34.0002 16.3252 32.4256 15.921 30.6922C15.408 28.4962 16.0875 25.9605 17.4487 20.8867L18.612 16.5397L19.161 14.5035C20.1847 10.755 20.8732 8.69174 22.194 7.28099C23.4104 5.98318 24.9842 5.07495 26.7165 4.67099C28.9125 4.15799 31.4505 4.83749 36.5265 6.19874C41.598 7.55774 44.136 8.23724 45.7807 9.77624C47.0801 10.9936 47.9892 12.5691 48.393 14.3032C48.906 16.4992 48.2265 19.035 46.8675 24.1087ZM24.8647 22.0612C24.9222 21.8471 25.0212 21.6465 25.1562 21.4707C25.2912 21.2948 25.4595 21.1474 25.6516 21.0366C25.8436 20.9259 26.0555 20.8541 26.2753 20.8252C26.4951 20.7964 26.7184 20.8112 26.9325 20.8687L37.8 23.7825C38.0197 23.8346 38.2267 23.9303 38.4088 24.0638C38.5909 24.1974 38.7443 24.3662 38.86 24.5601C38.9756 24.754 39.0512 24.9692 39.0822 25.1929C39.1132 25.4166 39.099 25.6442 39.0404 25.8623C38.9818 26.0804 38.88 26.2845 38.7411 26.4625C38.6022 26.6405 38.429 26.7889 38.2317 26.8988C38.0344 27.0086 37.8171 27.0778 37.5926 27.1021C37.3681 27.1265 37.141 27.1055 36.9247 27.0405L26.0572 24.129C25.6254 24.013 25.2572 23.7303 25.0336 23.343C24.81 22.9557 24.7493 22.4933 24.8647 22.0612ZM23.1187 28.584C23.2347 28.1521 23.5174 27.7839 23.9047 27.5603C24.292 27.3367 24.7522 27.276 25.1842 27.3915L31.7047 29.1397C31.9255 29.1907 32.1338 29.2856 32.3171 29.4187C32.5004 29.5519 32.655 29.7206 32.7717 29.9148C32.8884 30.109 32.9648 30.3248 32.9963 30.5491C33.0279 30.7735 33.0139 31.0019 32.9552 31.2208C32.8966 31.4396 32.7945 31.6444 32.655 31.823C32.5155 32.0015 32.3415 32.1501 32.1433 32.26C31.9451 32.3698 31.7269 32.4386 31.5015 32.4623C31.2762 32.4859 31.0484 32.464 30.8317 32.3977L24.3112 30.6517C24.0971 30.5943 23.8965 30.4953 23.7207 30.3603C23.5448 30.2252 23.3974 30.0569 23.2866 29.8649C23.1759 29.6729 23.1041 29.4609 23.0752 29.2411C23.0464 29.0214 23.0612 28.7981 23.1187 28.584Z" fill="#7961E4"/>
</svg>
